# xmcd CD database file
#
# Track frame offsets:
#	150
#	12807
#	32742
#	48465
#	63270
#	81757
#	94670
#	110722
#	127475
#	139540
#
# Disc length: 2083 seconds
#
# Revision: 0
# Processed by: cddbd v1.5.2PL0 Copyright (c) Steve Scherf et al.
# Submitted via: CDex 1.70beta2
#
DISCID=8508210a
DTITLE=Carla Rugg - this is...
DYEAR=1996
DGENRE=Country
TTITLE0=Who Says a Woman Can't Be Strong
TTITLE1=This Isn't Love
TTITLE2=Too Soon to Tell
TTITLE3=You're Still Gone
TTITLE4=Just Like Jesse James
TTITLE5=I Will Still Love Again
TTITLE6=What You Get Is What You See
TTITLE7=Any Other Fool
TTITLE8=A Little Love
TTITLE9=Real Man
EXTD=YEAR: 1996
EXTT0=
EXTT1=
EXTT2=
EXTT3=
EXTT4=
EXTT5=
EXTT6=
EXTT7=
EXTT8=
EXTT9=
PLAYORDER=
